<svg width="405" height="154" viewBox="0 0 405 154" fill="none" xmlns="http://www.w3.org/2000/svg">
<g clip-path="url(#clip0_442_419)">
<path d="M0 0V153.996L133.046 0H0ZM28.2008 47.0409H13.3593V32.1818H28.1969V47.0409H28.2008ZM28.2008 26.3259H13.3593V11.4668H28.1969V26.3259H28.2008ZM50.2283 47.0409H35.3906V32.1818H50.2283V47.0409ZM35.3906 26.3259V11.4668H50.2283V26.3259H35.3906Z" fill="#FAAF40"/>
<path d="M133.046 6.29492V154H94.2637V51.1792L133.046 6.29492Z" fill="#C8AD81"/>
<path d="M92.5797 132.061V154L60.1807 132.061H92.5797Z" fill="#757779"/>
<path d="M143.301 43.9983C144.162 42.2769 145.528 40.5905 147.398 38.9429C149.268 37.2954 151.232 35.9043 153.28 34.7619C155.329 33.6234 157.316 32.6092 159.24 31.7232C161.161 30.8373 162.756 30.165 164.021 29.7104L165.918 29.1003C166.422 29.2519 167.094 29.4811 167.928 29.7842C168.762 30.0873 170.33 30.7362 172.634 31.7232C174.935 32.7102 177.05 33.736 178.971 34.8007C180.895 35.8654 182.828 37.2332 184.775 38.9041C186.723 40.575 188.128 42.273 188.989 43.9944C188.636 68.4708 188.559 90.6623 188.76 110.577L188.912 113.771C188.76 114.023 188.504 114.377 188.151 114.836C187.798 115.29 187.061 116.114 185.951 117.307C184.837 118.5 183.701 119.549 182.537 120.462C181.373 121.375 179.917 122.199 178.171 122.933C176.425 123.668 174.691 124.037 172.972 124.037L173.046 92.0378H159.31V124.037C157.587 124.037 155.868 123.683 154.15 122.972C152.431 122.261 150.937 121.402 149.672 120.388C148.407 119.374 147.266 118.364 146.257 117.35C145.245 116.335 144.484 115.477 143.98 114.766L143.146 113.779C143.25 77.2914 143.301 54.0313 143.301 43.9983ZM159.392 46.2792V78.2784H173.054C173.154 61.7095 173.154 51.0432 173.054 46.2792C172.448 44.6589 171.536 43.2756 170.322 42.137C169.107 40.9985 168.044 40.2486 167.132 39.895L165.84 39.3626C165.689 39.4636 165.487 39.5802 165.231 39.7046C164.979 39.8328 164.521 40.1359 163.865 40.6177C163.206 41.0995 162.6 41.5814 162.046 42.0632C161.487 42.545 160.944 43.1668 160.412 43.9245C159.884 44.6822 159.543 45.4671 159.392 46.2792Z" fill="#323031"/>
<path d="M208.572 124.037H192.481C192.431 74.2255 192.407 44.5578 192.407 35.03C193.874 38.5271 196.772 42.6188 201.099 47.305C205.425 51.9913 209.053 55.298 211.99 57.2254C211.536 57.4274 211.106 57.68 210.698 57.987C210.295 58.2901 209.965 58.6087 209.713 58.939C209.46 59.2693 209.243 59.5724 209.068 59.8521C208.89 60.1319 208.727 60.4233 208.576 60.7264V87.5575C213.434 83.8078 218.672 81.931 224.286 81.931L235.973 89.8346V110.355H242.802V124.037H220.034V97.8159C219.882 97.8159 219.681 97.8159 219.425 97.8159C219.172 97.8159 218.691 97.9053 217.981 98.0801C217.271 98.2589 216.577 98.4842 215.894 98.764C215.211 99.0438 214.45 99.4868 213.616 100.093C212.782 100.699 212.033 101.437 211.377 102.296C209.604 104.476 208.669 106.73 208.568 109.061V124.037H208.572Z" fill="#323031"/>
<path d="M269.975 116.129C269.925 109.392 269.898 103.283 269.898 97.812C269.393 97.812 268.784 97.8742 268.078 98.0024C267.368 98.1307 266.305 98.562 264.888 99.2925C263.472 100.027 262.281 101.029 261.322 102.296C259.549 104.476 258.614 106.73 258.513 109.061V124.033H242.422C242.372 105.486 242.349 91.4511 242.349 81.9232H258.513V87.5498C263.371 83.8 268.609 81.9232 274.224 81.9232C276.502 84.8103 278.321 87.1418 279.687 88.9176C282.368 86.8387 285.278 85.1562 288.417 83.8622C291.553 82.5683 294.412 81.9232 296.992 81.9232L308.679 89.8268V110.355H315.508V124.037H292.74V97.8159C292.589 97.8159 292.387 97.8159 292.131 97.8159C291.878 97.8159 291.397 97.9053 290.687 98.0802C289.977 98.2589 289.283 98.4843 288.6 98.7641C287.917 99.0438 287.156 99.4868 286.322 100.093C285.488 100.699 284.716 101.437 284.006 102.296C282.283 104.476 281.375 106.73 281.274 109.061V124.033H269.963V116.129H269.975Z" fill="#323031"/>
<path d="M351.489 124.037H331.452C331.301 125.152 331.906 126.547 333.272 128.218C334.486 129.687 336.461 130.6 339.193 130.954C341.925 131.307 344.645 131.055 347.353 130.192C350.061 129.329 351.97 128.039 353.084 126.314C353.235 126.718 353.208 127.328 353.006 128.136C352.804 128.945 352.347 129.908 351.64 131.024C350.93 132.139 350.007 133.192 348.87 134.179C347.733 135.166 346.138 136.001 344.09 136.689C342.041 137.377 339.725 137.715 337.144 137.715C334.968 137.715 332.93 137.563 331.033 137.26C329.136 136.957 327.502 136.537 326.136 136.005C324.771 135.473 323.506 134.867 322.342 134.183C321.178 133.499 320.227 132.776 319.494 132.014C318.76 131.253 318.101 130.495 317.519 129.733C316.937 128.972 316.494 128.253 316.192 127.569C315.889 126.885 315.648 126.275 315.47 125.747C315.291 125.214 315.179 124.795 315.128 124.492L315.055 124.037V112.333C315.055 108.078 315.699 103.986 316.991 100.058C318.283 96.1334 320.444 92.8266 323.482 90.1377C325.201 88.6689 327.037 87.4293 328.984 86.4151C330.932 85.4009 332.702 84.6937 334.296 84.2857C335.891 83.8816 337.342 83.5902 338.661 83.4114C339.977 83.2327 341.013 83.1705 341.773 83.221L342.836 83.2949H353.767V110.355H360.596V124.037H351.489ZM342.231 97.3574C341.878 97.3069 341.381 97.3185 340.749 97.3963C340.116 97.4701 339.003 97.8509 337.408 98.5348C335.813 99.2187 334.436 100.221 333.272 101.538C332.36 102.553 331.716 103.792 331.336 105.265C330.955 106.734 330.816 107.95 330.917 108.914L330.994 110.359H342.227V97.3574H342.231Z" fill="#323031"/>
<path d="M405 124.037H360.22V111.571C360.22 107.216 360.941 102.996 362.385 98.9156C363.828 94.8355 366.141 91.4044 369.33 88.6145C373.175 85.2688 377.475 83.1666 382.232 82.3079C382.131 60.3689 382.08 44.6589 382.08 35.1815C383.497 38.6787 386.38 42.7704 390.733 47.4566C395.083 52.1428 398.726 55.4496 401.663 57.3769C401.209 57.579 400.779 57.8315 400.375 58.1385C399.968 58.4416 399.642 58.7486 399.39 59.0517C399.137 59.3548 398.92 59.6617 398.746 59.9648C398.567 60.2679 398.404 60.5749 398.253 60.878V110.355H405.008V124.037H405ZM382.076 97.812C381.925 97.812 381.723 97.812 381.471 97.812C381.219 97.812 380.738 97.9014 380.028 98.0762C379.318 98.255 378.623 98.4804 377.94 98.7601C377.257 99.0399 376.497 99.4829 375.663 100.089C374.828 100.695 374.056 101.434 373.346 102.292C372.333 103.559 371.612 104.865 371.185 106.205C370.754 107.55 370.564 108.576 370.615 109.283L370.692 110.347H382.076V97.812Z" fill="#323031"/>
<path d="M186.219 154C184.787 154 183.677 153.604 182.886 152.815C182.098 152.026 181.636 151.257 181.501 150.511C181.369 149.764 181.299 148.727 181.299 147.402C181.299 146.015 181.361 144.969 181.489 144.258C181.617 143.547 181.955 142.918 182.498 142.37C183.045 141.822 183.619 141.426 184.217 141.177C184.818 140.928 185.482 140.804 186.211 140.804C187.484 140.804 188.566 141.177 189.451 141.915C190.336 142.657 190.894 143.745 191.127 145.179H187.887C187.767 144.697 187.585 144.321 187.34 144.052C187.096 143.784 186.727 143.648 186.23 143.648C185.939 143.648 185.691 143.695 185.485 143.784C185.28 143.874 185.101 144.017 184.958 144.212C184.81 144.406 184.698 144.721 184.612 145.152C184.527 145.583 184.484 146.333 184.484 147.402C184.484 148.509 184.519 149.259 184.593 149.652C184.667 150.048 184.818 150.398 185.047 150.701C185.276 151.004 185.672 151.156 186.23 151.156C186.715 151.156 187.084 151.043 187.332 150.821C187.581 150.6 187.767 150.297 187.887 149.916H191.127C190.898 151.253 190.34 152.267 189.463 152.962C188.586 153.654 187.503 154 186.219 154Z" fill="#323031"/>
<path d="M204.583 152.543C204.098 153.029 203.563 153.394 202.981 153.639C202.398 153.883 201.723 154.004 200.959 154.004C199.516 154.004 198.398 153.607 197.61 152.819C196.823 152.03 196.361 151.26 196.225 150.514C196.093 149.768 196.023 148.731 196.023 147.406C196.023 146.019 196.086 144.973 196.214 144.262C196.342 143.551 196.679 142.918 197.234 142.366C197.785 141.814 198.355 141.414 198.937 141.173C199.519 140.928 200.195 140.808 200.959 140.808C202.402 140.808 203.52 141.204 204.308 141.993C205.095 142.782 205.557 143.551 205.693 144.297C205.825 145.043 205.894 146.081 205.894 147.406C205.894 148.793 205.832 149.838 205.704 150.549C205.576 151.257 205.204 151.925 204.583 152.543ZM202.236 144.212C202.115 144.041 201.941 143.905 201.716 143.8C201.491 143.699 201.238 143.644 200.959 143.644C200.68 143.644 200.431 143.695 200.214 143.8C199.997 143.905 199.81 144.052 199.659 144.247C199.508 144.441 199.395 144.74 199.322 145.148C199.248 145.556 199.213 146.306 199.213 147.398C199.213 148.494 199.248 149.24 199.322 149.64C199.395 150.04 199.504 150.336 199.647 150.526C199.795 150.716 199.981 150.868 200.21 150.981C200.439 151.097 200.691 151.156 200.955 151.156C201.514 151.156 201.906 151.004 202.139 150.701C202.367 150.398 202.523 150.044 202.592 149.644C202.666 149.244 202.701 148.498 202.701 147.402C202.701 146.322 202.666 145.572 202.592 145.16C202.527 144.748 202.406 144.429 202.236 144.212Z" fill="#323031"/>
<path d="M219.076 153.911L214.924 147.386V153.911H211.738V140.913H214.524L218.676 147.441V140.913H221.862V153.911H219.076Z" fill="#323031"/>
<path d="M231.815 154C230.736 154 229.805 153.876 229.021 153.627C228.237 153.378 227.531 152.931 226.902 152.286L228.939 150.246C229.254 150.561 229.669 150.794 230.185 150.938C230.701 151.082 231.248 151.156 231.834 151.156C233.072 151.156 233.693 150.767 233.693 149.99C233.693 149.663 233.63 149.43 233.502 149.298C233.374 149.166 233.242 149.069 233.111 149.007C232.979 148.948 232.8 148.902 232.583 148.879L231.019 148.661C229.867 148.49 228.994 148.105 228.408 147.503C227.818 146.901 227.523 146.034 227.523 144.907C227.523 143.703 227.946 142.72 228.796 141.954C229.646 141.189 230.798 140.804 232.253 140.804C233.211 140.804 234.042 140.924 234.736 141.161C235.435 141.398 236.063 141.795 236.622 142.354L234.62 144.359C234.375 144.119 234.081 143.928 233.727 143.796C233.374 143.664 232.932 143.594 232.4 143.594H232.164C231.64 143.594 231.252 143.714 230.988 143.951C230.728 144.188 230.596 144.472 230.596 144.799C230.596 144.931 230.616 145.043 230.658 145.137C230.701 145.226 230.767 145.319 230.86 145.409C230.949 145.502 231.062 145.58 231.198 145.646C231.33 145.712 231.512 145.758 231.745 145.782L233.312 145.999C234.453 146.159 235.248 146.458 235.699 146.901C236.149 147.344 236.447 147.798 236.599 148.268C236.75 148.735 236.828 149.287 236.828 149.92C236.828 151.183 236.35 152.181 235.4 152.908C234.441 153.639 233.246 154 231.815 154Z" fill="#323031"/>
<path d="M248.161 143.757V153.911H244.976V143.757H241.79V140.913H251.347V143.757H248.161Z" fill="#323031"/>
<path d="M263.398 153.911L261.105 149.061H260.03V153.911H256.845V140.913H261.978C263.363 140.913 264.446 141.325 265.23 142.145C266.013 142.964 266.405 143.948 266.405 145.09C266.405 145.906 266.2 146.601 265.785 147.177C265.373 147.756 264.873 148.191 264.291 148.478L267.096 153.911H263.398ZM261.831 143.777H260.03V146.403H261.831C262.254 146.403 262.591 146.271 262.84 146.011C263.088 145.751 263.212 145.444 263.212 145.09C263.212 144.736 263.088 144.429 262.84 144.169C262.595 143.905 262.257 143.777 261.831 143.777Z" fill="#323031"/>
<path d="M277.033 154C275.648 154 274.488 153.573 273.549 152.714C272.61 151.859 272.141 150.728 272.141 149.333V140.913H275.326V149.263C275.326 149.858 275.474 150.324 275.772 150.658C276.071 150.992 276.49 151.159 277.037 151.159C277.573 151.159 277.996 150.996 278.31 150.666C278.624 150.34 278.783 149.869 278.783 149.263V140.913H281.969V149.333C281.969 150.72 281.492 151.843 280.541 152.706C279.583 153.569 278.415 154 277.033 154Z" fill="#323031"/>
<path d="M292.503 154C291.071 154 289.962 153.604 289.174 152.815C288.386 152.026 287.924 151.257 287.789 150.511C287.657 149.764 287.587 148.727 287.587 147.402C287.587 146.015 287.649 144.969 287.777 144.258C287.905 143.547 288.243 142.918 288.786 142.37C289.333 141.822 289.907 141.426 290.505 141.177C291.106 140.928 291.77 140.804 292.499 140.804C293.776 140.804 294.854 141.177 295.739 141.915C296.624 142.657 297.182 143.745 297.415 145.179H294.175C294.055 144.697 293.873 144.321 293.628 144.052C293.388 143.784 293.015 143.648 292.519 143.648C292.228 143.648 291.979 143.695 291.774 143.784C291.568 143.874 291.389 144.017 291.246 144.212C291.102 144.406 290.986 144.721 290.901 145.152C290.815 145.583 290.773 146.333 290.773 147.402C290.773 148.509 290.807 149.259 290.881 149.652C290.955 150.048 291.106 150.398 291.335 150.701C291.564 151.004 291.96 151.156 292.519 151.156C293.004 151.156 293.372 151.043 293.621 150.821C293.869 150.6 294.055 150.297 294.175 149.916H297.415C297.186 151.253 296.631 152.267 295.751 152.962C294.874 153.654 293.791 154 292.503 154Z" fill="#323031"/>
<path d="M308.342 143.757V153.911H305.156V143.757H301.971V140.913H311.527V143.757H308.342Z" fill="#323031"/>
<path d="M317.021 153.911V140.913H320.207V153.911H317.021Z" fill="#323031"/>
<path d="M334.606 152.543C334.121 153.029 333.586 153.394 333.004 153.639C332.422 153.883 331.747 154.004 330.982 154.004C329.539 154.004 328.422 153.607 327.634 152.819C326.846 152.03 326.384 151.26 326.249 150.514C326.117 149.768 326.047 148.731 326.047 147.406C326.047 146.019 326.109 144.973 326.237 144.262C326.365 143.551 326.703 142.918 327.257 142.366C327.808 141.814 328.379 141.414 328.961 141.173C329.543 140.928 330.218 140.808 330.982 140.808C332.426 140.808 333.543 141.204 334.331 141.993C335.119 142.782 335.58 143.551 335.716 144.297C335.848 145.043 335.918 146.081 335.918 147.406C335.918 148.793 335.856 149.838 335.728 150.549C335.6 151.257 335.227 151.925 334.606 152.543ZM332.259 144.212C332.139 144.041 331.964 143.905 331.739 143.8C331.514 143.699 331.262 143.644 330.982 143.644C330.703 143.644 330.455 143.695 330.237 143.8C330.02 143.905 329.834 144.052 329.683 144.247C329.531 144.441 329.419 144.74 329.345 145.148C329.271 145.556 329.236 146.306 329.236 147.398C329.236 148.494 329.271 149.24 329.345 149.64C329.419 150.04 329.527 150.336 329.671 150.526C329.814 150.716 330.005 150.868 330.234 150.981C330.462 151.097 330.715 151.156 330.979 151.156C331.537 151.156 331.929 151.004 332.162 150.701C332.391 150.398 332.546 150.044 332.616 149.644C332.69 149.244 332.725 148.498 332.725 147.402C332.725 146.322 332.69 145.572 332.616 145.16C332.55 144.748 332.43 144.429 332.259 144.212Z" fill="#323031"/>
<path d="M349.099 153.911L344.947 147.386V153.911H341.762V140.913H344.548L348.699 147.441V140.913H351.885V153.911H349.099Z" fill="#323031"/>
<path d="M361.841 154C360.762 154 359.831 153.876 359.047 153.627C358.263 153.378 357.557 152.931 356.925 152.286L358.962 150.246C359.276 150.561 359.691 150.794 360.207 150.938C360.723 151.082 361.271 151.156 361.856 151.156C363.094 151.156 363.711 150.767 363.711 149.99C363.711 149.663 363.649 149.43 363.521 149.298C363.393 149.166 363.265 149.069 363.129 149.007C362.997 148.948 362.819 148.902 362.601 148.879L361.034 148.661C359.881 148.49 359.012 148.105 358.423 147.503C357.833 146.901 357.542 146.034 357.542 144.907C357.542 143.703 357.965 142.72 358.814 141.954C359.664 141.189 360.817 140.804 362.272 140.804C363.23 140.804 364.056 140.924 364.755 141.161C365.453 141.398 366.082 141.795 366.641 142.354L364.639 144.359C364.394 144.119 364.099 143.928 363.746 143.796C363.393 143.664 362.951 143.594 362.415 143.594H362.178C361.659 143.594 361.267 143.714 361.003 143.951C360.743 144.188 360.611 144.472 360.611 144.799C360.611 144.931 360.63 145.043 360.673 145.137C360.716 145.226 360.782 145.319 360.875 145.409C360.968 145.502 361.077 145.58 361.212 145.646C361.344 145.712 361.527 145.758 361.759 145.782L363.323 145.999C364.464 146.159 365.259 146.458 365.709 146.901C366.16 147.344 366.458 147.798 366.61 148.268C366.761 148.739 366.839 149.287 366.839 149.92C366.839 151.183 366.361 152.181 365.411 152.908C364.464 153.639 363.273 154 361.841 154Z" fill="#323031"/>
</g>
<defs>
<clipPath id="clip0_442_419">
<rect width="405" height="154" fill="white"/>
</clipPath>
</defs>
</svg>
